<svg xmlns="http://www.w3.org/2000/svg" version="1.1" xmlns:xlink="http://www.w3.org/1999/xlink" width="512" height="512" x="0" y="0" viewBox="0 0 64 64" style="enable-background:new 0 0 512 512" xml:space="preserve" class=""><g><path d="M59.125 20.235c0-10.62-8.64-19.26-19.26-19.26h-11.99v15h11.99a4.266 4.266 0 0 1 0 8.53H4.875v15.03H39.865c2.35 0 4.26 1.91 4.26 4.26s-1.91 4.26-4.26 4.26h-11.99v15h11.99c10.62 0 19.26-8.64 19.26-19.26 0-4.44-1.52-8.52-4.05-11.78 2.53-3.26 4.05-7.34 4.05-11.78z" fill="#2388e7" opacity="1" data-original="#000000" class=""></path><path d="M19.875 16.005V.945h-5.124c-5.454 0-9.876 4.422-9.876 9.876v5.184zM4.875 48.035v5.144c0 5.454 4.422 9.876 9.876 9.876h5.124v-15.02z" fill="#2388e7" opacity="1" data-original="#000000" class=""></path></g></svg>